<svg width="60" height="27" viewBox="0 0 60 27" fill="none" xmlns="http://www.w3.org/2000/svg">
<path d="M53.4424 15.9251V14.6572H58.7607C58.9791 13.995 59.0777 13.5865 59.0777 13.5865C59.2186 12.8821 58.7396 12.3044 58.0211 12.3044C58.0211 12.3044 48.3917 12.3044 45.1796 12.3044C44.447 12.3044 44.13 12.6989 43.975 13.0652C43.5242 14.1148 42.5521 15.8899 42.0027 16.7634C41.249 17.9679 38.7342 17.7355 25.8222 17.8975C18.3413 17.9891 15.418 18.0736 13.4668 18.0173C12.4242 17.9891 11.8818 17.8834 11.6776 17.5594C11.5085 17.2917 11.5015 16.9818 11.4521 16.5309C11.3254 15.4109 11.2901 15.0376 11.2901 15.0376C11.2267 14.3191 10.5787 13.7344 9.86017 13.7344H1.70303C0.984524 13.7344 0.294197 14.1571 0.329417 14.8685C0.35055 15.3193 0.392815 15.7209 0.963392 16.7564C1.84391 18.3483 2.75965 18.3765 3.09073 22.0817C3.19639 23.2863 3.26683 24.1034 3.31614 24.6529C3.41476 25.787 4.08396 25.9701 4.49252 26.0335C4.94334 26.104 5.4153 26.1462 5.78864 26.1462C5.78864 26.1462 38.2411 26.1462 43.6369 26.1462C49.0327 26.1462 50.4838 25.6743 53.9144 22.6382C56.1544 20.6518 57.5421 17.8834 58.3099 15.9322H53.4424V15.9251ZM18.1089 20.7997C17.7003 20.7997 17.3692 20.4686 17.3692 20.0601C17.3692 19.6515 17.7003 19.3204 18.1089 19.3204C18.5174 19.3204 18.8415 19.6515 18.8415 20.0601C18.8415 20.4686 18.5174 20.7997 18.1089 20.7997ZM22.3495 20.7997C21.9409 20.7997 21.6169 20.4686 21.6169 20.0601C21.6169 19.6515 21.948 19.3204 22.3495 19.3204C22.758 19.3204 23.0891 19.6515 23.0891 20.0601C23.0821 20.4686 22.758 20.7997 22.3495 20.7997ZM26.5901 20.7997C26.1815 20.7997 25.8504 20.4686 25.8504 20.0601C25.8504 19.6515 26.1815 19.3204 26.5901 19.3204C26.9986 19.3204 27.3297 19.6515 27.3297 20.0601C27.3226 20.4686 26.9916 20.7997 26.5901 20.7997ZM30.8236 20.7997C30.415 20.7997 30.084 20.4686 30.084 20.0601C30.084 19.6515 30.415 19.3204 30.8236 19.3204C31.2322 19.3204 31.5562 19.6515 31.5562 20.0601C31.5632 20.4686 31.2322 20.7997 30.8236 20.7997ZM35.0642 20.7997C34.6556 20.7997 34.3245 20.4686 34.3245 20.0601C34.3245 19.6515 34.6556 19.3204 35.0642 19.3204C35.4727 19.3204 35.8038 19.6515 35.8038 20.0601C35.8038 20.4686 35.4727 20.7997 35.0642 20.7997ZM39.3048 20.7997C38.8962 20.7997 38.5651 20.4686 38.5651 20.0601C38.5651 19.6515 38.8962 19.3204 39.3048 19.3204C39.7133 19.3204 40.0444 19.6515 40.0444 20.0601C40.0374 20.4686 39.7133 20.7997 39.3048 20.7997Z" fill="#1C3F39"/>
<path d="M43.5579 11.8041L43.5086 11.1561H48.4184V9.56409H41.7969V13.7765H42.6351C43.1071 12.8819 43.4945 12.0718 43.5579 11.8041Z" fill="#FF7D44"/>
<path d="M41.0239 4.51343H34.4023V8.72584H41.0239V4.51343Z" fill="#FF7D44"/>
<path d="M42.1921 14.6149H41.8047V15.3122C41.9315 15.0868 42.0583 14.8544 42.1921 14.6149Z" fill="#FF7D44"/>
<path d="M55.8227 9.56409H49.2012V11.1561H55.8227V9.56409Z" fill="#FF7D44"/>
<path d="M48.4262 4.51343H41.8047V8.72584H48.4262V4.51343Z" fill="#FF7D44"/>
<path d="M33.6196 9.56409H26.998V13.7765H33.6196V9.56409Z" fill="#FF7D44"/>
<path d="M29.7883 16.6929C31.2253 16.6788 32.4933 16.6647 33.6274 16.6436V14.6149H27.0059V16.7281L29.7883 16.6929Z" fill="#FF7D44"/>
<path d="M41.0239 16.1857V14.6149H34.4023V16.6365C38.1851 16.5731 40.1997 16.4745 41.0239 16.1857Z" fill="#FF7D44"/>
<path d="M41.0239 9.56409H34.4023V13.7765H41.0239V9.56409Z" fill="#FF7D44"/>
<path d="M14.3824 3.35133V1.56212H16.5379V1.45645C16.5379 0.73795 15.9462 0.14624 15.2277 0.14624H7.83833C7.11982 0.14624 6.53516 0.73795 6.53516 1.45645V1.56916H7.90877V2.55534H6.53516V6.45076H16.5379V3.35133H14.3824ZM10.6419 2.5483H8.84564V1.56212H10.6419V2.5483ZM13.375 2.5483H11.5788V1.56212H13.375V2.5483Z" fill="#1C3F39"/>
<path d="M18.3828 10.9662V8.72611H20.9751C20.9751 8.0076 20.3834 7.41589 19.6649 7.41589H5.18912C4.47062 7.41589 3.87891 8.00056 3.87891 8.72611H6.7177V9.95884H3.87891V11.2831C3.87891 12.0016 4.47062 12.5934 5.18912 12.5934H10.8738C11.874 12.5863 12.1699 12.7624 12.2403 13.2485C12.2896 13.5725 12.2896 13.7768 12.3601 14.4882C12.3601 14.4882 12.4094 15.0025 12.4728 15.573C12.5362 16.1436 12.8532 16.6015 13.2617 16.6297C14.0366 16.686 14.6494 16.7353 15.3679 16.7353H19.6649C20.3834 16.7353 20.9751 16.1507 20.9751 15.4251V10.9591H18.3828V10.9662ZM10.2891 9.95179H8.04201V8.71906H10.2891V9.95179ZM13.7055 9.95179H11.4584V8.71906H13.7055V9.95179ZM17.1219 9.95179H14.8748V8.71906H17.1219V9.95179Z" fill="#1C3F39"/>
</svg>
