<svg width="49" height="27" viewBox="0 0 49 27" fill="none" xmlns="http://www.w3.org/2000/svg">
<path d="M15.1826 18.4738C13.0805 18.4738 11.3789 20.1754 11.3789 22.2774C11.3789 24.3794 13.0805 26.0811 15.1826 26.0811C17.2846 26.0811 18.9862 24.3794 18.9862 22.2774C18.9862 20.1816 17.2846 18.4738 15.1826 18.4738ZM15.1826 24.9425C13.7124 24.9425 12.5238 23.7538 12.5238 22.2837C12.5238 20.8135 13.7124 19.6249 15.1826 19.6249C16.6527 19.6249 17.8414 20.8135 17.8414 22.2837C17.8414 23.7476 16.6527 24.9425 15.1826 24.9425Z" fill="#1C3F39"/>
<path d="M40.9833 18.4738C38.8813 18.4738 37.1797 20.1754 37.1797 22.2774C37.1797 24.3794 38.8813 26.0811 40.9833 26.0811C43.0854 26.0811 44.787 24.3794 44.787 22.2774C44.787 20.1816 43.0854 18.4738 40.9833 18.4738ZM40.9833 24.9425C39.5132 24.9425 38.3245 23.7538 38.3245 22.2837C38.3245 20.8135 39.5194 19.6249 40.9833 19.6249C42.4535 19.6249 43.6421 20.8135 43.6421 22.2837C43.6484 23.7476 42.4535 24.9425 40.9833 24.9425Z" fill="#1C3F39"/>
<path d="M6.30561 18.4736C4.20359 18.4736 2.50195 20.1753 2.50195 22.2773C2.50195 24.3793 4.20359 26.0809 6.30561 26.0809C8.40763 26.0809 10.1093 24.3793 10.1093 22.2773C10.103 20.1815 8.40138 18.4736 6.30561 18.4736ZM6.30561 24.9424C4.83545 24.9424 3.6468 23.7537 3.6468 22.2835C3.6468 20.8134 4.83545 19.6247 6.30561 19.6247C7.77577 19.6247 8.96442 20.8134 8.96442 22.2835C8.96442 23.7475 7.77577 24.9424 6.30561 24.9424Z" fill="#1C3F39"/>
<path d="M29.0334 0.0810547H1.83848C0.831257 0.0810547 0.0117188 0.900593 0.0117188 1.90781V20.4506C0.0117188 20.9511 0.155607 21.4891 0.549736 21.7394C1.40055 22.2774 1.59449 21.2764 1.73838 20.8323C2.35147 18.8929 4.16571 17.4915 6.30527 17.4915C7.71913 17.4915 8.98284 18.1046 9.85869 19.0743C10.2278 19.4872 11.2288 19.5373 11.5728 19.1369C12.4487 18.1297 13.7437 17.4915 15.1826 17.4915C17.3471 17.4915 19.1364 18.9429 19.7745 20.9011C20.0435 21.7394 20.8005 22.2837 21.3134 22.2837C23.3717 22.2837 29.0334 22.2837 29.0334 22.2837C30.0406 22.2837 30.8601 21.4641 30.8601 20.4569V1.90781C30.8601 0.900593 30.0343 0.0810547 29.0334 0.0810547Z" fill="#1C3F39"/>
<path d="M48.2525 18.943C48.1086 14.47 46.113 14.958 44.893 11.9238C42.3594 5.63024 39.9195 4.77942 36.5225 4.77942C34.6082 4.77942 33.5634 4.77942 33.5634 4.77942C32.675 4.77942 32.2246 5.64275 32.2246 6.64997V20.482C32.2246 21.4892 33.0441 22.2963 34.0514 22.2712C34.0514 22.2712 34.4705 22.2337 35.1399 22.2525C35.8218 22.2712 36.241 21.5205 36.3223 21.1827C36.8165 19.0619 38.7184 17.4791 40.9893 17.4791C43.1288 17.4791 44.9056 18.8867 45.5499 20.8136C45.8377 21.6644 46.432 21.9272 46.7448 21.8896C47.3204 21.8146 47.5518 21.458 47.8146 21.1014C48.3276 21.02 48.728 20.5258 48.728 19.9252C48.7217 19.5248 48.534 19.162 48.2525 18.943ZM41.4335 12.637H35.6341C34.6269 12.637 33.8074 11.8174 33.8074 10.8102V8.32032C33.8074 7.31311 34.4017 6.49357 35.4089 6.49357H35.9907C36.9979 6.49357 37.6736 6.51859 38.7559 6.68125C39.5817 6.80011 40.3574 7.27557 41.6524 9.13986C42.3906 10.2034 42.6534 10.8915 42.7535 11.6172C42.8348 12.2554 42.4344 12.637 41.4335 12.637Z" fill="#FF7D44"/>
</svg>
