<svg width="50" height="27" viewBox="0 0 50 27" fill="none" xmlns="http://www.w3.org/2000/svg">
<path d="M43.3833 14.9035L42.558 13.6494C42.1935 13.0921 41.4325 12.942 40.8752 13.3064L40.5 13.553C41.2825 15.0428 41.8184 16.3934 42.1935 17.626L43.0403 16.5756C43.5977 16.2219 43.7477 15.4609 43.3833 14.9035Z" fill="#FF7D44"/>
<path d="M39.0676 12.7518C37.0297 14.0313 34.8877 15.2528 32.7051 16.4281C36.7576 18.6049 41.1923 20.9785 41.1923 20.9785C41.1923 20.9785 42.6744 17.9565 39.0676 12.7518Z" fill="#1C3F39"/>
<path d="M48.8812 0.478519C48.2734 0.385889 47.4455 0.565359 46.5655 0.872195C46.5655 0.872195 46.5597 0.872195 46.5539 0.872195C46.525 0.883774 44.3134 1.76955 42.7619 2.51637C41.193 3.26899 41.9166 1.89691 41.9166 1.89691C41.9166 1.89691 43.005 1.17903 44.5566 0.854827C44.2729 0.883774 43.9892 0.924299 43.7287 0.970614C41.3898 1.41061 40.7645 1.75218 35.0157 5.64262C34.7378 5.83367 34.431 6.0363 34.101 6.25051C35.0852 6.22156 36.023 6.19261 36.8625 6.15788L37.9451 6.11156L37.3778 7.03786C37.2967 7.1768 35.2878 10.4304 32.4742 12.723C29.7126 14.9751 27.4663 15.4672 27.2174 15.5135L27.0727 15.5424L21.7754 14.0198C16.9471 16.9956 12.8366 19.485 12.8366 19.485L3.6315 19.3808L0.777344 20.5618C0.777344 20.5618 5.14253 23.9312 7.90985 24.9675L8.51773 25.9227C8.85931 26.4554 9.57719 26.6175 10.1098 26.2759L12.524 24.7359C15.0308 23.9659 18.296 22.4433 22.337 20.5271C28.2595 17.725 35.9015 14.0372 42.1193 9.88622C42.125 9.88043 42.1308 9.88043 42.1424 9.87464C49.2923 6.01314 50.8438 0.785355 48.8812 0.478519Z" fill="#1C3F39"/>
<path d="M28.0513 5.9094C28.0396 5.89768 28.0396 5.89768 28.0396 5.88595L26.2578 3.60014C25.4725 2.59204 23.9955 2.40449 22.9756 3.18987L19.3535 6.0149C21.991 5.88595 24.9801 5.87423 28.0513 5.9094Z" fill="#FF7D44"/>
<path d="M36.8911 6.73675C36.8911 6.73675 34.8821 10.0193 32.1148 12.2772C29.3417 14.535 27.107 14.9519 27.107 14.9519L11.2441 10.384C11.2441 10.384 12.512 8.27672 16.7498 7.29253C20.9877 6.31413 31.4259 6.97412 36.8911 6.73675Z" fill="#1C3F39"/>
</svg>
